<svg width="480" height="360" viewBox="0 0 480 360" fill="none" xmlns="http://www.w3.org/2000/svg">
<g clip-path="url(#clip0_1_2)">
<path opacity="0.2" fill-rule="evenodd" clip-rule="evenodd" d="M0 198.781C0 240.238 14.945 278.016 39.539 306.566C67.753 339.331 108.667 359.931 154.273 360C173.644 360.042 192.837 356.293 210.768 348.964C219.819 345.265 229.95 345.69 238.716 350.071C249.258 355.346 260.885 358.089 272.673 358.082C277.696 358.082 282.615 357.587 287.373 356.648C300.954 353.978 313.313 347.658 323.462 338.708C329.841 333.081 338.01 330.252 346.36 330.262H346.502C374.091 330.262 399.717 321.53 420.994 306.566C440.015 293.206 455.548 274.87 465.898 253.341C474.92 234.581 480 213.388 480 190.958C480 114.027 420.226 51.653 346.502 51.653C338.986 51.653 331.622 52.316 324.439 53.552C305.418 21.42 271.355 4.21779e-05 232.498 4.21779e-05C216.589 -0.0143085 200.891 3.63354 186.619 10.661C173.379 17.148 161.608 26.366 151.978 37.6C119.281 38.144 89.048 49.29 64.303 67.891C25.351 97.155 0 144.882 0 198.781Z" fill="url(#paint0_linear_1_2)"/>
<g filter="url(#filter0_d_1_2)">
<path opacity="0.15" d="M182.109 142.246C206.754 142.246 226.732 122.268 226.732 97.623C226.732 72.9784 206.754 53 182.109 53C157.464 53 137.486 72.9784 137.486 97.623C137.486 122.268 157.464 142.246 182.109 142.246Z" fill="#FFC107"/>
<path d="M182.109 121.029C195.036 121.029 205.515 110.55 205.515 97.623C205.515 84.6962 195.036 74.217 182.109 74.217C169.182 74.217 158.703 84.6962 158.703 97.623C158.703 110.55 169.182 121.029 182.109 121.029Z" fill="url(#paint1_linear_1_2)"/>
<path fill-rule="evenodd" clip-rule="evenodd" d="M244.878 306.611C279.438 306.611 307.453 278.595 307.453 244.036C307.453 209.476 279.438 181.46 244.878 181.46C210.319 181.46 182.303 209.476 182.303 244.036C182.303 278.595 210.319 306.611 244.878 306.611ZM244.878 283.425C266.632 283.425 284.267 265.79 284.267 244.036C284.267 222.281 266.632 204.646 244.878 204.646C223.124 204.646 205.489 222.281 205.489 244.036C205.489 265.79 223.124 283.425 244.878 283.425Z" fill="#005249"/>
<path opacity="0.24" d="M425.621 117.222C425.621 116.024 425.36 114.84 424.857 113.753C424.354 112.665 423.62 111.7 422.707 110.924C421.794 110.148 420.724 109.58 419.569 109.259C418.415 108.938 417.204 108.872 416.022 109.065C415.073 107.295 413.662 105.814 411.939 104.781C410.217 103.747 408.247 103.199 406.238 103.195H405.835C406.485 100.586 406.325 97.8408 405.375 95.3252C404.426 92.8096 402.732 90.643 400.52 89.1141C398.309 87.5851 395.684 86.7664 392.995 86.7669C390.306 86.7674 387.681 87.5872 385.47 89.117C383.259 90.6456 381.565 92.8116 380.615 95.3266C379.666 97.8416 379.505 100.586 380.154 103.195H379.751C378.255 103.144 376.764 103.394 375.367 103.932C373.97 104.469 372.696 105.282 371.62 106.322C370.543 107.362 369.688 108.608 369.103 109.986C368.519 111.363 368.217 112.845 368.217 114.341C368.217 115.838 368.519 117.32 369.103 118.697C369.688 120.075 370.543 121.321 371.62 122.361C372.696 123.401 373.97 124.214 375.367 124.751C376.764 125.289 378.255 125.539 379.751 125.488H418.431V125.415C420.418 125.151 422.242 124.176 423.565 122.669C424.887 121.162 425.618 119.227 425.621 117.222ZM104.258 199.045C104.258 197.164 103.51 195.36 102.18 194.03C100.85 192.7 99.046 191.953 97.165 191.953C96.784 191.96 96.404 191.992 96.027 192.05C95.2084 190.529 93.9926 189.258 92.509 188.373C91.0254 187.488 89.3295 187.022 87.602 187.024H87.259C87.6795 185.35 87.7127 183.603 87.3562 181.915C86.9996 180.226 86.2628 178.641 85.2016 177.28C84.1404 175.92 82.7828 174.819 81.2322 174.062C79.6815 173.305 77.9786 172.911 76.253 172.911C74.5274 172.911 72.8245 173.305 71.2738 174.062C69.7232 174.819 68.3656 175.92 67.3044 177.28C66.2432 178.641 65.5063 180.226 65.1498 181.915C64.7933 183.603 64.8265 185.35 65.247 187.024H64.905C63.6192 186.975 62.3366 187.186 61.1342 187.644C59.9317 188.102 58.8341 188.798 57.907 189.69C56.9799 190.582 56.2423 191.653 55.7386 192.837C55.2348 194.021 54.9751 195.294 54.9751 196.581C54.9751 197.868 55.2348 199.141 55.7386 200.325C56.2423 201.509 56.9799 202.58 57.907 203.472C58.8341 204.364 59.9317 205.06 61.1342 205.518C62.3366 205.976 63.6192 206.187 64.905 206.138H98.082V206.077C99.7884 205.852 101.355 205.014 102.491 203.721C103.627 202.428 104.255 200.766 104.258 199.045Z" fill="#00AB55"/>
<path d="M139.83 303C137.563 303 135.92 302.547 134.9 301.64C133.993 300.733 133.54 299.26 133.54 297.22V277.84H79.65C76.7033 277.84 75.23 276.48 75.23 273.76V266.79C75.23 265.203 75.4 264.013 75.74 263.22C76.08 262.313 76.7033 261.237 77.61 259.99L134.9 190.63C135.92 189.383 136.827 188.533 137.62 188.08C138.413 187.627 139.66 187.4 141.36 187.4H148.84C151.107 187.4 152.75 187.91 153.77 188.93C154.79 189.95 155.3 191.537 155.3 193.69V261.35H167.2C169.467 261.35 171.053 261.86 171.96 262.88C172.867 263.787 173.32 265.317 173.32 267.47V272.06C173.32 274.1 172.867 275.573 171.96 276.48C171.053 277.387 169.467 277.84 167.2 277.84H155.3V297.22C155.3 299.26 154.79 300.733 153.77 301.64C152.863 302.547 151.22 303 148.84 303H139.83ZM137.11 261.35V213.07L98.01 261.35H137.11Z" fill="#00AB55"/>
<path d="M330.81 295C328.543 295 326.957 294.603 326.05 293.81C325.143 292.903 324.69 291.43 324.69 289.39V284.46C324.69 282.307 325.143 280.777 326.05 279.87C326.957 278.963 328.543 278.51 330.81 278.51H347.47V203.2L332.85 212.04C331.943 212.607 331.15 212.89 330.47 212.89C329.45 212.89 328.6 212.323 327.92 211.19L322.48 202.69C322.027 201.897 321.8 201.16 321.8 200.48C321.8 199.347 322.423 198.44 323.67 197.76L351.72 180.93C352.513 180.363 353.307 179.967 354.1 179.74C354.893 179.513 355.97 179.4 357.33 179.4H362.94C367.247 179.4 369.4 181.497 369.4 185.69V278.51H386.06C388.327 278.51 389.913 278.963 390.82 279.87C391.727 280.777 392.18 282.307 392.18 284.46V289.39C392.18 291.43 391.727 292.903 390.82 293.81C389.913 294.603 388.327 295 386.06 295H330.81Z" fill="#00AB55"/>
</g>
</g>
<defs>
<filter id="filter0_d_1_2" x="50.9751" y="49" width="394.646" height="277.611" filterUnits="userSpaceOnUse" color-interpolation-filters="sRGB">
<feFlood flood-opacity="0" result="BackgroundImageFix"/>
<feColorMatrix in="SourceAlpha" type="matrix" values="0 0 0 0 0 0 0 0 0 0 0 0 0 0 0 0 0 0 127 0" result="hardAlpha"/>
<feOffset dx="8" dy="8"/>
<feGaussianBlur stdDeviation="6"/>
<feColorMatrix type="matrix" values="0 0 0 0 0 0 0 0 0 0 0 0 0 0 0 0 0 0 0.12 0"/>
<feBlend mode="normal" in2="BackgroundImageFix" result="effect1_dropShadow_1_2"/>
<feBlend mode="normal" in="SourceGraphic" in2="effect1_dropShadow_1_2" result="shape"/>
</filter>
<linearGradient id="paint0_linear_1_2" x1="328.81" y1="424.032" x2="505.393" y2="26.048" gradientUnits="userSpaceOnUse">
<stop stop-color="#00AB55"/>
<stop offset="1" stop-color="#00AB55" stop-opacity="0.01"/>
</linearGradient>
<linearGradient id="paint1_linear_1_2" x1="135.297" y1="97.623" x2="182.109" y2="144.436" gradientUnits="userSpaceOnUse">
<stop stop-color="#FFE16A"/>
<stop offset="1" stop-color="#B78103"/>
</linearGradient>
<clipPath id="clip0_1_2">
<rect width="480" height="360" fill="white"/>
</clipPath>
</defs>
</svg>
